<svg version="1.1" id="a" xmlns="http://www.w3.org/2000/svg" xmlns:xlink="http://www.w3.org/1999/xlink" x="0" y="0" viewBox="0 0 180.7 180.7" xml:space="preserve"><style></style><defs><path id="SVGID_1_" d="M0 0h180.7v180.7H0z"/></defs><clipPath id="SVGID_00000042730345367259476410000000018880877513310597_"><use xlink:href="#SVGID_1_" overflow="visible"/></clipPath><g clip-path="url(#SVGID_00000042730345367259476410000000018880877513310597_)" fill="none" stroke-miterlimit="10"><path d="M97.3 66.5l3-2.1c-.8-1-2.7-2-3.3-2s-.8 0-1.1.2l-29.6 9.7c-1.4.5-1.9 1.2-1.9 2.8l.4 31c0 1.1.5 2.4 1.7 2.6l29.2 9.3c.5.2.8.3 1.3.3s1.3-.1 2-1.1L117.6 92c.4-.8.7-1.5.7-2s-.1-.9-.7-1.9l-11.7-15.4" stroke="red" stroke-width="7.9"/><path d="M171.1 90.4c0 44.6-36.1 80.7-80.7 80.7S9.6 135 9.6 90.4 45.8 9.8 90.3 9.8s80.8 36.1 80.8 80.6h0zm-32.9 65.1l-3.6-5.4c-1.6-1.8-1.6-4.7 0-6.5l20.1-29.2c1.2-1.7 2.6-2.5 4.4-2.5s1.5.1 2.2.4l6.3 2.1M42.7 155.6l4.8-6.1c1.1-1.4 2.4-2.2 4.2-2.2s1.3 0 2 .3l33.7 10c2.6.8 4 2.5 4.3 5.6v7.9M13.3 65.8l7 2.1c2.4.7 4.1 3 4.1 5.4v35.4c0 2.8-1.3 4.4-3.7 5.4l-6.8 2.8M91 9.5v8.1c.2 2.8-1.2 4.7-4 5.6L53.3 33.9c-.6.2-1.3.3-1.9.3-1.8 0-3.1-.8-4.4-2.3l-5.2-6.3m125.8 40.6l-8 2.8c-.8.3-1.5.4-2.2.4-1.8 0-3.2-.9-4.3-2.5l-20.6-28.6c-.8-1.2-1.3-2.2-1.3-3.4s.4-2.1 1.1-3.2l4.9-7.5" stroke="#0d1139" stroke-width="8"/></g></svg>